<svg width="21" height="16" viewBox="0 0 21 16" fill="none" xmlns="http://www.w3.org/2000/svg">
<path d="M20.6765 6.61549H18.0901C17.9123 6.61549 17.7668 6.76058 17.7668 6.93791V7.74396C17.7668 7.92129 17.9123 8.06637 18.0901 8.06637H20.6765C20.8544 8.06637 20.9998 7.92129 20.9998 7.74396V6.93791C20.9998 6.76058 20.8544 6.61549 20.6765 6.61549ZM19.8299 11.8911L17.6011 10.6074C17.5645 10.5865 17.5241 10.573 17.4823 10.5677C17.4404 10.5623 17.3979 10.5653 17.3572 10.5763C17.3165 10.5873 17.2783 10.6063 17.245 10.632C17.2116 10.6578 17.1836 10.6898 17.1627 10.7263L16.7605 11.4215C16.6716 11.5747 16.7242 11.7722 16.8777 11.8608L19.1065 13.1445C19.1431 13.1654 19.1835 13.1789 19.2254 13.1842C19.2672 13.1896 19.3097 13.1866 19.3504 13.1756C19.3912 13.1645 19.4293 13.1456 19.4627 13.1199C19.4961 13.0941 19.524 13.0621 19.545 13.0256L19.9471 12.3304C20.036 12.1772 19.9814 11.9797 19.8299 11.8911ZM17.1606 3.95554C17.1816 3.99206 17.2096 4.02411 17.2429 4.04985C17.2763 4.07559 17.3145 4.09452 17.3552 4.10556C17.3959 4.1166 17.4384 4.11954 17.4802 4.1142C17.5221 4.10886 17.5625 4.09534 17.5991 4.07443L19.8279 2.79081C19.9814 2.70214 20.034 2.50466 19.9451 2.35151L19.545 1.65831C19.524 1.62179 19.4961 1.58975 19.4627 1.56401C19.4293 1.53827 19.3912 1.51933 19.3504 1.50829C19.3097 1.49725 19.2672 1.49432 19.2254 1.49966C19.1835 1.505 19.1431 1.51851 19.1065 1.53942L16.8777 2.82305C16.8039 2.86595 16.7502 2.93625 16.7282 3.01857C16.7063 3.1009 16.7179 3.18854 16.7605 3.26234L17.1606 3.95554Z" fill="#41B46C"/>
<path d="M20.6765 6.61549H18.0901C17.9123 6.61549 17.7668 6.76058 17.7668 6.93791V7.74396C17.7668 7.92129 17.9123 8.06637 18.0901 8.06637H20.6765C20.8544 8.06637 20.9998 7.92129 20.9998 7.74396V6.93791C20.9998 6.76058 20.8544 6.61549 20.6765 6.61549ZM19.8299 11.8911L17.6011 10.6074C17.5645 10.5865 17.5241 10.573 17.4823 10.5677C17.4404 10.5623 17.3979 10.5653 17.3572 10.5763C17.3165 10.5873 17.2783 10.6063 17.245 10.632C17.2116 10.6578 17.1836 10.6898 17.1627 10.7263L16.7605 11.4215C16.6716 11.5747 16.7242 11.7722 16.8777 11.8608L19.1065 13.1445C19.1431 13.1654 19.1835 13.1789 19.2254 13.1842C19.2672 13.1896 19.3097 13.1866 19.3504 13.1756C19.3912 13.1645 19.4293 13.1456 19.4627 13.1199C19.4961 13.0941 19.524 13.0621 19.545 13.0256L19.9471 12.3304C20.036 12.1772 19.9814 11.9797 19.8299 11.8911ZM17.1606 3.95554C17.1816 3.99206 17.2096 4.02411 17.2429 4.04985C17.2763 4.07559 17.3145 4.09452 17.3552 4.10556C17.3959 4.1166 17.4384 4.11954 17.4802 4.1142C17.5221 4.10886 17.5625 4.09534 17.5991 4.07443L19.8279 2.79081C19.9814 2.70214 20.034 2.50466 19.9451 2.35151L19.545 1.65831C19.524 1.62179 19.4961 1.58975 19.4627 1.56401C19.4293 1.53827 19.3912 1.51933 19.3504 1.50829C19.3097 1.49725 19.2672 1.49432 19.2254 1.49966C19.1835 1.505 19.1431 1.51851 19.1065 1.53942L16.8777 2.82305C16.8039 2.86595 16.7502 2.93625 16.7282 3.01857C16.7063 3.1009 16.7179 3.18854 16.7605 3.26234L17.1606 3.95554Z" stroke="#41B46C"/>
<path d="M10.313 1.00066V15.0009C10.3126 15.192 10.2593 15.3789 10.1595 15.5397C10.0597 15.7004 9.91754 15.8283 9.74975 15.9082C9.58197 15.9881 9.39558 16.0167 9.2126 15.9906C9.02961 15.9645 8.85767 15.8848 8.71705 15.7609L4.47713 12.0008H2.25597C1.65765 12.0008 1.08383 11.755 0.660757 11.3174C0.237682 10.8798 0 10.2863 0 9.66747L0 6.33408C0 5.04606 1.01067 4.00071 2.25597 4.00071H4.47584L8.71705 0.240642C8.85749 0.116175 9.0295 0.035982 9.21268 0.00957499C9.39585 -0.016832 9.58251 0.0116548 9.7505 0.0916566C9.91849 0.171658 10.0608 0.299818 10.1605 0.460935C10.2602 0.622051 10.3131 0.809364 10.313 1.00066ZM5.46331 5.76074C5.28789 5.91559 5.06484 6.00069 4.83421 6.00074H2.25597C2.17049 6.00074 2.08852 6.03586 2.02808 6.09838C1.96764 6.16089 1.93369 6.24568 1.93369 6.33408V9.66747C1.93369 9.85148 2.07807 10.0008 2.25597 10.0008H4.83421C5.06497 10.0008 5.28799 10.0861 5.46331 10.2408L8.3793 12.8275V3.17403L5.46331 5.76074Z" fill="#41B46C"/>
</svg>
