<svg width="21" height="16" viewBox="0 0 21 16" fill="none" xmlns="http://www.w3.org/2000/svg">
<path d="M10.4873 1.00066V15.0009C10.4869 15.192 10.4327 15.3789 10.3313 15.5397C10.2298 15.7004 10.0852 15.8283 9.91456 15.9082C9.74394 15.9881 9.55441 16.0167 9.36833 15.9906C9.18225 15.9645 9.0074 15.8848 8.86441 15.7609L4.55281 12.0008H2.2941C1.68567 12.0008 1.10215 11.755 0.671927 11.3174C0.241699 10.8798 0 10.2863 0 9.66748L0 6.33408C0 5.04606 1.02776 4.00071 2.2941 4.00071H4.5515L8.86441 0.240642C9.00722 0.116175 9.18214 0.035982 9.36841 0.00957499C9.55468 -0.016832 9.74449 0.0116548 9.91532 0.0916567C10.0862 0.171659 10.2308 0.299818 10.3322 0.460935C10.4336 0.622051 10.4874 0.809364 10.4873 1.00066ZM14.7871 4.29405L17.0419 6.58742L19.2967 4.29405C19.4832 4.1175 19.7297 4.02136 19.9844 4.02583C20.2391 4.03031 20.4823 4.13505 20.6626 4.31805C20.8426 4.50152 20.9455 4.74879 20.9499 5.00789C20.9543 5.26698 20.8598 5.51772 20.6862 5.70741L18.4315 8.00078L20.6862 10.2942C20.8157 10.4164 20.9103 10.5719 20.9601 10.7442C21.0099 10.9165 21.0131 11.0993 20.9694 11.2734C20.9256 11.4474 20.8366 11.6062 20.7115 11.7331C20.5865 11.8599 20.4301 11.9501 20.2589 11.9942C20.088 12.0387 19.9084 12.0356 19.7391 11.9852C19.5698 11.9347 19.4169 11.8388 19.2967 11.7075L17.0419 9.41414L14.7871 11.7075C14.6669 11.8391 14.5141 11.9354 14.3447 11.9861C14.1752 12.0367 13.9955 12.04 13.8244 11.9955C13.6533 11.951 13.4971 11.8604 13.3724 11.7332C13.2477 11.606 13.159 11.447 13.1157 11.2728C13.0719 11.099 13.075 10.9164 13.1246 10.7441C13.1741 10.5719 13.2685 10.4165 13.3976 10.2942L15.6523 8.00078L13.3976 5.70741C13.2681 5.58517 13.1735 5.4297 13.1237 5.25737C13.0739 5.08503 13.0706 4.90222 13.1144 4.72818C13.1581 4.55415 13.2472 4.39533 13.3723 4.26848C13.4973 4.14162 13.6537 4.05142 13.8249 4.00738C13.9958 3.96282 14.1754 3.96593 14.3447 4.01637C14.514 4.06682 14.6669 4.16274 14.7871 4.29405ZM5.55566 5.76074C5.37727 5.91559 5.15045 6.00069 4.91593 6.00074H2.2941C2.20718 6.00074 2.12382 6.03586 2.06236 6.09838C2.0009 6.16089 1.96637 6.24568 1.96637 6.33408V9.66748C1.96637 9.85148 2.1132 10.0008 2.2941 10.0008H4.91593C5.15059 10.0008 5.37737 10.0861 5.55566 10.2408L8.52095 12.8275V3.17403L5.55566 5.76074Z" fill="#41B46C"/>
</svg>
